<svg id="Layer_2" data-name="Layer 2" version="1.1" viewBox="0 0 525.29 179.46" xmlns="http://www.w3.org/2000/svg">
 <path id="path2" d="m69.69 79.27v3.27q0 28.07 0 56.12c0 2.58-0.63 4.81-2.87 6.27a6 6 0 0 1-9.32-5c-0.17-6.4-0.06-12.8-0.07-19.2v-3.07c-0.7 0-1.18-0.09-1.48 0.08-11.79 6.91-23.4 14.08-32.36 24.65a32 32 0 0 0-4.72 7.57c-2.86 6.35-1.27 12 4.24 16.36 4.53 3.56 9.83 5.5 15.29 7 10.56 3 21.39 4 32.29 4.69 1.07 0.07 2.15 0.21 3.22 0.36 0.21 0 0.4 0.25 0.83 0.54a5.58 5.58 0 0 1-1.49 0.45c-17.59-0.15-35.1-1.1-52.14-6a42 42 0 0 1-14.56-6.85c-6.86-5.24-8.33-12.07-4.33-19.76 4.13-7.86 10.67-13.52 17.54-18.83 10.82-8.38 22.64-15.15 34.78-21.38a4.63 4.63 0 0 0 3-4.77q-0.12-46.39 0-92.79v-3.24a5.78 5.78 0 0 1 5.68-5.71 6.12 6.12 0 0 1 6.37 5.42 24.88 24.88 0 0 1 0.07 3q0 27.57 0 55.13c0 1 0.09 2 0.14 3.18 1 0.05 1.92 0.13 2.8 0.13 22.89 0 45.79 0 68.68 0.06 2.4 0 3.1-0.66 3.09-3.07-0.09-18.63-0.06-37.25 0-55.88a13.52 13.52 0 0 1 0.42-4.18 6 6 0 0 1 6.62-3.75 6.25 6.25 0 0 1 5.09 5.41c0.05 0.58 0 1.16 0 1.74q0 65.73 0 131.46a9.88 9.88 0 0 1-0.79 4.07 6 6 0 0 1-11.28-2.49c-0.1-7.81-0.07-15.63-0.08-23.44v-35.17c0-1.93-0.53-2.6-2.52-2.6-23.31 0.06-46.62 0-69.94 0-0.6 0.03-1.25 0.14-2.2 0.22zm191.76 58.92c0 5.49 2.28 7.8 7.67 7.8q42.35 0 84.68 0a7.66 7.66 0 0 0 5.95-2.45c10.41-10.52 20.93-20.92 31.35-31.43 1.37-1.38 2.18-1.44 3.58 0 6.4 6.53 12.92 13 19.39 19.41l12 12a6.5 6.5 0 0 0 7.38 1.19 5.65 5.65 0 0 0 3.08-6.25 10.4 10.4 0 0 0-2.61-4.36q-15.09-15.26-30.37-30.3c-1.68-1.65-1.59-2.59 0-4.16 5.62-5.43 11.1-11 16.63-16.52 6.12-6.11 12.25-12.2 18.33-18.34 3.44-3.47 2.67-8.45-1.52-10.33-2.45-1.1-5-0.45-7.43 1.94q-17.34 17.34-34.69 34.74c-1.52 1.54-2.35 1.62-3.94 0-11.51-11.59-23.14-23.16-34.71-34.73a19.6 19.6 0 0 0-2-1.86 5.75 5.75 0 0 0-6.56-0.51c-2.27 1.24-3.53 3.28-3.06 5.76a9.54 9.54 0 0 0 2.44 4.68q17.52 17.75 35.28 35.27c1.55 1.53 1.58 2.44 0 4q-14.22 14-28.25 28.18a5.92 5.92 0 0 1-4.59 1.9c-20.9-0.07-41.8 0-62.7 0h-9.5c-2.63 0-3.35-0.78-3.45-3.45v-2.49q0-59.39 0-118.75a27.71 27.71 0 0 0-0.18-4 5.95 5.95 0 0 0-11.43-1.52 13.24 13.24 0 0 0-0.78 4.6q-0.08 32.43 0 64.87t0.01 65.11zm-95.77-17.43a48.23 48.23 0 0 0 59.6 24.11c13.62-4.89 23.26-14.21 28.68-27.7a6.19 6.19 0 0 0-3.95-8.4c-3.64-1.26-6.5 0.37-8.48 4.84-8.35 18.88-31.23 26.82-49.11 17-3.35-1.84-3.41-2.27-0.67-5q25.77-25.75 51.54-51.5c3.31-3.31 3.33-5.68 0-8.91-13.19-12.66-28.87-16.8-46.48-12.54-21.32 5.15-36 24.58-36.05 46.7a46.89 46.89 0 0 0 4.92 21.4zm59.54-52.9c0.44 0.22 0.87 0.48 1.3 0.73 2.24 1.32 2.37 1.88 0.56 3.71q-7.72 7.78-15.5 15.5l-29.27 29.23c-2.31 2.3-2.82 2.24-4.36-0.54a33.81 33.81 0 0 1-4.35-17.17 35.39 35.39 0 0 1 51.62-31.46zm205.78 35.92c0.76-0.25 1.54-0.45 2.27-0.76 4-1.69 8-3.36 11.89-5.13 20.89-9.35 41.45-19.35 59.82-33.15 7.07-5.33 13.75-11.08 18-19.07s2.65-15-4.61-20.37a31.23 31.23 0 0 0-4.9-2.95c-11.34-5.53-23.63-7.27-36-8.43a357 357 0 0 0-55.85-0.38c-13.95 0.88-27.87 2.17-41.78 3.56-10 1-20 2.38-29.94 3.76-6.76 0.93-13.47 2.12-20.2 3.22a4.33 4.33 0 0 0-4 3.82c-0.54 3.41 1.65 6 5.16 5.61 4.63-0.47 9.22-1.34 13.83-1.94 10.39-1.35 20.76-2.94 31.19-3.88 14.08-1.28 28.2-2.35 42.32-3 21.57-0.94 43.12-0.69 64.24 4.63 6.23 1.57 12.24 3.78 17.13 8.22a12.37 12.37 0 0 1 4.34 10.12c-0.16 4.63-2.35 8.25-5 11.67-6.64 8.53-15.36 14.65-24.35 20.38a319.62 319.62 0 0 1-41.19 21.7c-1 0.44-1.85 1.07-2.78 1.6z" fill="#00a9c4"/>
</svg>
